<?xml version="1.0" encoding="UTF-8" standalone="no"?> 
<svg xmlns="http://www.w3.org/2000/svg" viewBox="0 0 64 64">
    <g id="Layer_41" data-name="Layer 41">
        <path d="M50.92,41.49l10-23.43A1,1,0,0,0,60,16.67H54.42a1,1,0,0,0,0,2h4.07L49.34,40.1H18.91L14.14,18.67h4.32a1,1,0,0,0,0-2H13.69L13,13.46a1,1,0,0,0-1-.78H4a1,1,0,0,0,0,2h7.2l7.68,34.5a1,1,0,0,0,1,.78H50a1,1,0,0,0,0-2H20.66L19.35,42.1H50A1,1,0,0,0,50.92,41.49Z"/>
        <path d="M25.21,51.93a4.54,4.54,0,1,0,4.54,4.53A4.53,4.53,0,0,0,25.21,51.93Zm0,7.07a2.54,2.54,0,1,1,2.54-2.54A2.54,2.54,0,0,1,25.21,59Z"/>
        <path d="M43.5,51.93A4.54,4.54,0,1,0,48,56.46,4.53,4.53,0,0,0,43.5,51.93Zm0,7.07A2.54,2.54,0,1,1,46,56.46,2.54,2.54,0,0,1,43.5,59Z"/>
        <path d="M36.45,31a14,14,0,1,0-14-14A14,14,0,0,0,36.45,31Zm0-26a12,12,0,1,1-12,12A12,12,0,0,1,36.45,5Z"/>
        <path d="M43.46,20.5H31.85L34,18.35a1,1,0,0,0,0-1.42,1,1,0,0,0-1.41,0l-3.86,3.86a1,1,0,0,0,0,1.42l3.86,3.86a1,1,0,0,0,1.41,0,1,1,0,0,0,.3-.71,1,1,0,0,0-.3-.71L31.85,22.5H43.46a1,1,0,1,0,0-2Z"/>
        <path d="M29.43,13.5H41l-2.15,2.15a1,1,0,0,0-.3.71,1,1,0,0,0,1,1,1,1,0,0,0,.71-.29l3.86-3.86a1,1,0,0,0,0-1.42L40.3,7.93a1,1,0,0,0-1.41,0,1,1,0,0,0,0,1.42L41,11.5H29.43a1,1,0,0,0,0,2Z"/>
    </g>
</svg>